<?xml version="1.0" standalone="no"?>
<!DOCTYPE svg PUBLIC "-//W3C//DTD SVG 20010904//EN"
 "http://www.w3.org/TR/2001/REC-SVG-20010904/DTD/svg10.dtd">
<svg version="1.0" xmlns="http://www.w3.org/2000/svg"
 width="991.000000pt" height="991.000000pt" viewBox="0 0 991.000000 991.000000"
 preserveAspectRatio="xMidYMid meet">
<metadata>
Created by potrace 1.11, written by Peter Selinger 2001-2013
</metadata>
<g transform="translate(0.000000,991.000000) scale(0.100000,-0.100000)"
fill="#000000" stroke="none">
<path d="M2707 8979 c-321 -13 -422 -33 -562 -115 -148 -87 -376 -278 -496
-415 -154 -176 -317 -437 -502 -804 -161 -319 -221 -397 -565 -731 -367 -357
-512 -546 -559 -731 -15 -58 -18 -120 -18 -408 0 -247 4 -356 13 -400 40 -178
244 -470 552 -790 208 -216 291 -334 437 -622 163 -322 248 -439 497 -688 208
-206 376 -357 490 -439 282 -202 925 -555 1271 -698 204 -84 480 -212 912
-421 491 -238 838 -390 953 -416 25 -5 92 -17 150 -26 134 -21 436 -87 755
-165 722 -176 813 -186 1678 -177 695 7 803 18 1003 105 103 44 280 144 370
208 152 109 370 397 429 569 26 74 29 230 11 485 -55 766 -73 2087 -32 2353
23 146 55 228 191 498 220 435 220 437 220 879 0 352 -9 432 -59 556 -64 157
-193 317 -336 414 -100 68 -193 170 -240 261 -38 75 -69 197 -81 327 -14 148
-33 225 -75 293 -127 210 -563 527 -944 687 -299 126 -625 201 -1265 291 -554
78 -866 99 -1810 121 -490 11 -2105 11 -2388 -1z m2678 -218 c983 -41 1557
-95 1675 -156 68 -35 27 -40 -313 -39 -422 2 -1011 38 -1347 84 -282 38 -383
44 -750 45 -394 0 -462 -6 -707 -61 -236 -52 -604 -186 -818 -298 -379 -197
-1028 -637 -992 -672 10 -10 117 53 257 153 455 325 1118 647 1554 753 248 61
374 75 676 75 292 -1 405 -9 965 -70 544 -60 525 -59 1260 -60 613 0 702 -3
800 -18 255 -42 598 -195 940 -422 188 -125 281 -212 328 -307 37 -77 67 -196
67 -272 0 -58 24 -184 51 -264 38 -114 145 -253 291 -378 190 -163 297 -291
329 -395 47 -150 65 -517 34 -694 -21 -118 -61 -218 -204 -503 -67 -134 -135
-283 -151 -330 -54 -164 -55 -183 -55 -1122 0 -868 8 -1143 41 -1470 19 -192
18 -332 -2 -401 -46 -159 -228 -405 -393 -530 -83 -63 -346 -195 -472 -237
-158 -52 -253 -64 -561 -69 -293 -6 -671 9 -878 33 -239 28 -438 69 -895 189
-316 82 -686 168 -836 194 -191 32 -483 151 -1044 426 -372 182 -680 325 -845
392 -238 97 -560 261 -910 466 -325 189 -420 261 -733 552 -251 233 -367 389
-521 695 -139 276 -206 380 -346 540 -44 49 -80 95 -80 101 0 12 15 10 112
-12 32 -7 61 -9 65 -5 14 14 -39 47 -175 112 -203 97 -281 167 -414 369 -228
345 -281 720 -142 996 95 190 333 483 492 607 87 68 239 104 596 141 103 11
190 22 193 24 2 3 -92 8 -209 11 -300 10 -325 14 -296 58 8 13 35 47 60 75 65
76 134 198 273 478 128 260 244 459 355 617 124 175 374 404 544 498 140 77
232 97 501 110 223 11 2326 4 2630 -9z"/>
<path d="M4550 8380 c-321 -21 -674 -73 -853 -125 -167 -48 -476 -179 -622
-262 -113 -64 -246 -154 -345 -233 -139 -111 -337 -326 -317 -346 15 -15 97
48 247 191 58 55 132 121 165 146 253 194 649 383 982 468 224 57 575 101 869
108 269 7 397 -3 694 -53 599 -99 1156 -109 1940 -33 140 14 259 20 340 17
l125 -4 88 -47 c92 -49 127 -58 127 -32 0 24 -70 86 -129 113 -83 38 -225 40
-576 8 -154 -14 -363 -31 -465 -37 -238 -16 -760 -17 -915 -1 -206 21 -365 43
-495 67 -291 56 -572 74 -860 55z"/>
<path d="M4250 8073 c-150 -7 -393 -36 -498 -59 -233 -52 -473 -150 -625 -257
-225 -158 -447 -377 -422 -417 11 -18 62 18 172 121 164 154 364 299 490 356
181 80 440 153 631 178 174 22 473 33 778 27 276 -5 348 2 273 27 -65 21 -225
31 -479 29 -140 -1 -284 -3 -320 -5z"/>
<path d="M4850 7967 c0 -16 22 -48 76 -112 81 -97 147 -243 175 -392 6 -35 16
-63 20 -63 12 0 11 151 -2 230 -15 96 -58 181 -131 257 -77 80 -138 115 -138
80z"/>
<path d="M6945 7949 c-387 -38 -610 -81 -610 -119 0 -21 97 -20 196 3 157 35
570 77 759 77 147 0 204 -15 350 -91 251 -132 311 -194 409 -421 30 -73 45
-63 38 26 -9 127 -73 233 -194 325 -85 65 -319 183 -406 204 -87 22 -291 21
-542 -4z"/>
<path d="M6546 7649 c-64 -51 -98 -171 -96 -347 1 -70 5 -147 9 -172 6 -40 8
-33 15 60 12 165 44 283 106 390 21 36 23 81 4 87 -6 2 -23 -6 -38 -18z"/>
<path d="M3801 7389 c-214 -19 -423 -62 -569 -119 -175 -67 -386 -240 -450
-369 -18 -35 -32 -74 -32 -85 0 -54 85 -136 164 -157 58 -16 206 -6 361 25
313 62 574 62 854 0 168 -38 290 -83 536 -200 121 -57 226 -104 234 -104 24 0
206 126 275 191 38 35 75 78 83 96 16 40 17 156 2 186 -54 101 -299 283 -544
402 -148 72 -228 101 -335 121 -94 18 -440 26 -579 13z m627 -260 c112 -36
288 -119 382 -181 89 -59 190 -158 190 -187 0 -36 -37 -79 -78 -92 -33 -9 -48
-7 -116 15 -42 15 -139 56 -214 92 -166 79 -234 102 -331 114 -102 11 -108 19
-82 112 12 41 21 90 21 109 0 19 6 41 13 48 17 18 97 7 215 -30z m-1133 -164
c0 -28 -79 -69 -184 -95 -46 -11 -86 -19 -88 -16 -3 3 4 17 15 33 51 71 114
104 197 100 53 -2 60 -4 60 -22z"/>
<path d="M7170 7140 c-283 -27 -426 -79 -630 -230 -147 -109 -248 -150 -374
-150 -95 0 -186 -38 -186 -77 0 -28 77 -90 171 -139 159 -82 179 -117 179
-312 0 -120 15 -212 41 -265 44 -86 171 -193 256 -216 69 -19 143 -117 143
-191 0 -71 -78 -189 -210 -321 -150 -149 -255 -183 -355 -115 -74 51 -95 54
-138 16 -129 -113 36 -261 292 -263 124 -1 160 21 365 222 230 225 283 258
343 211 38 -30 58 -25 99 25 21 24 50 49 66 54 50 18 183 -27 420 -140 81 -39
152 -68 157 -64 17 10 -9 43 -74 92 -80 60 -142 91 -219 107 -86 18 -138 50
-249 154 -162 152 -295 254 -502 382 -115 71 -150 101 -175 150 -35 69 -59
269 -40 338 13 52 50 81 154 122 145 58 394 104 736 135 185 17 405 48 474 66
54 15 126 86 126 124 0 88 -175 232 -331 271 -77 19 -395 27 -539 14z m414
-220 c7 -7 -43 -10 -142 -10 -88 0 -152 4 -152 9 0 6 19 12 43 14 65 7 240 -2
251 -13z"/>
<path d="M2525 6923 c-89 -12 -275 -44 -308 -53 -122 -35 98 -144 251 -125 30
4 52 8 50 11 -2 2 -38 10 -78 19 -41 9 -79 20 -84 25 -10 10 21 27 144 75 132
52 137 63 25 48z"/>
<path d="M8186 6851 c-17 -19 -18 -23 -5 -36 30 -30 127 -38 409 -32 385 6
408 2 516 -102 72 -68 161 -137 224 -174 96 -56 173 -159 217 -291 23 -70 27
-98 27 -201 1 -106 -4 -137 -37 -268 -44 -175 -73 -242 -128 -292 -24 -21
-128 -80 -251 -141 -212 -104 -238 -119 -238 -135 0 -40 285 62 443 158 72 44
139 103 166 147 48 78 101 359 101 537 0 149 -9 191 -65 314 -56 123 -93 173
-155 206 -30 16 -109 74 -175 129 -66 55 -143 111 -171 125 -64 33 -169 45
-389 45 -93 1 -204 5 -245 11 -41 5 -109 12 -150 16 -68 5 -77 3 -94 -16z"/>
<path d="M1110 6819 c-112 -10 -198 -27 -235 -46 -55 -28 -156 -115 -213 -184
-121 -143 -168 -249 -183 -411 -14 -142 -5 -512 15 -673 28 -218 58 -293 160
-402 48 -52 79 -74 168 -118 106 -53 303 -123 314 -112 15 14 -18 35 -280 178
-121 66 -192 129 -233 206 -66 124 -96 327 -97 663 -1 250 6 309 49 406 46
105 202 310 280 370 52 39 245 68 708 105 86 7 143 16 135 20 -16 11 -473 9
-588 -2z"/>
<path d="M2513 6665 c-23 -16 -32 -68 -14 -79 10 -7 133 66 135 80 2 17 -97
16 -121 -1z"/>
<path d="M1465 6621 c-249 -41 -463 -217 -592 -487 -66 -140 -86 -225 -87
-379 -1 -175 33 -317 111 -468 71 -135 142 -179 200 -121 23 23 25 31 21 88
-3 34 -22 108 -43 166 -58 162 -85 269 -85 336 0 137 117 371 257 510 101 102
223 141 463 151 167 6 238 -6 311 -55 81 -55 347 -163 534 -218 208 -61 331
-77 545 -71 197 5 262 17 385 72 154 67 371 249 421 350 29 59 25 77 -22 114
-54 42 -123 21 -206 -62 -98 -99 -232 -174 -425 -238 -88 -29 -110 -33 -218
-33 -104 0 -136 4 -239 32 -154 42 -351 116 -534 202 -200 93 -281 110 -547
115 -110 2 -222 0 -250 -4z"/>
<path d="M8880 6537 c0 -20 61 -62 166 -115 97 -49 147 -101 169 -175 21 -72
55 -308 55 -380 0 -84 -20 -119 -121 -220 -108 -107 -127 -133 -110 -150 30
-30 204 109 256 204 28 51 29 59 28 163 -4 183 -45 430 -89 521 -19 41 -81 83
-188 125 -98 39 -166 50 -166 27z"/>
<path d="M8332 6355 c-90 -20 -157 -53 -295 -148 -67 -46 -136 -92 -154 -101
-53 -27 -104 -20 -205 26 -119 53 -206 64 -232 27 -20 -29 -21 -91 -2 -128 21
-39 81 -90 141 -117 96 -44 378 -74 487 -51 53 11 93 49 128 121 64 134 141
176 326 176 128 0 205 -19 328 -80 113 -57 160 -64 194 -27 33 36 37 71 12
123 -62 127 -249 195 -534 193 -72 0 -159 -7 -194 -14z"/>
<path d="M1760 6198 c-17 -23 -42 -80 -56 -127 -47 -159 -75 -209 -143 -254
-40 -26 -195 -93 -310 -133 -51 -18 -101 -61 -101 -88 0 -17 29 -42 64 -56 17
-6 98 -14 182 -19 188 -10 204 -17 253 -114 35 -69 38 -94 30 -214 -3 -37 1
-46 42 -90 66 -71 149 -183 309 -418 382 -562 593 -787 1069 -1144 441 -329
746 -487 1196 -616 525 -150 1001 -208 1815 -221 522 -9 946 10 1310 56 585
76 875 178 1055 371 68 75 106 131 168 254 136 273 162 439 162 1065 0 496
-16 692 -77 935 -26 108 -48 155 -92 199 -45 44 -63 85 -82 183 -15 81 -45
147 -69 157 -71 27 -103 -31 -136 -249 -46 -306 -112 -418 -330 -564 -244
-164 -634 -307 -969 -355 -539 -78 -1409 -7 -2128 173 -335 85 -1100 313
-1516 452 -356 120 -837 321 -1116 466 -269 140 -358 209 -384 297 -18 61 -51
96 -88 96 -21 0 -35 -10 -58 -42z m270 -485 c149 -61 613 -301 671 -347 62
-49 86 -90 99 -174 12 -73 13 -292 1 -311 -12 -19 -49 -5 -286 107 -317 149
-450 228 -528 311 -113 120 -194 384 -136 442 26 26 61 21 179 -28z m1176
-522 c602 -179 973 -295 1013 -315 67 -34 76 -60 56 -156 -26 -125 -56 -233
-76 -278 -22 -52 5 -57 -269 50 -261 102 -385 144 -479 163 -43 9 -93 27 -116
42 -101 67 -255 246 -303 353 -37 83 -22 180 28 180 9 0 75 -17 146 -39z
m5287 11 c21 -23 67 -122 67 -145 0 -38 -35 -11 -67 51 -44 85 -44 143 0 94z
m-211 -229 c49 -56 158 -360 160 -447 1 -47 -2 -53 -38 -84 -115 -100 -129
-85 -159 176 -24 204 -18 372 13 372 5 0 16 -8 24 -17z m-5925 -179 c162 -69
333 -159 381 -200 72 -61 102 -145 102 -284 0 -93 -10 -122 -52 -153 -23 -17
-32 -18 -51 -10 -58 27 -400 466 -513 658 l-28 48 27 -7 c15 -3 75 -27 134
-52z m5619 -12 c31 -20 48 -79 52 -180 7 -161 -30 -300 -89 -343 -22 -15 -173
-58 -211 -59 -11 0 -26 60 -33 130 -3 36 -15 102 -26 148 -10 46 -19 97 -19
114 0 43 45 81 164 138 86 41 114 52 146 59 3 0 10 -3 16 -7z m-3058 -87 c496
-98 563 -120 596 -190 19 -39 41 -242 32 -291 -10 -52 -35 -66 -129 -71 -152
-10 -439 30 -705 98 -216 55 -282 86 -282 136 0 26 62 282 80 328 16 42 29 55
56 55 13 0 172 -29 352 -65z m2451 -150 c34 -17 52 -53 87 -173 30 -105 27
-135 -15 -157 -63 -32 -342 -65 -551 -65 -135 0 -167 9 -187 50 -14 31 -28
189 -19 224 13 51 91 72 466 124 103 15 188 14 219 -3z m-1225 -25 c273 -33
269 -32 283 -60 19 -41 56 -235 50 -262 -12 -45 -45 -51 -287 -56 -269 -5
-362 5 -399 43 -26 25 -26 28 -26 171 0 141 1 146 24 165 31 26 131 25 355 -1z
m-2999 -121 c21 -6 120 -47 220 -91 239 -107 408 -174 519 -205 153 -43 206
-88 206 -175 0 -88 -62 -274 -145 -435 -85 -167 -99 -170 -260 -70 -134 83
-489 324 -593 401 -151 112 -167 142 -112 211 46 57 72 138 77 240 5 82 21
135 41 135 4 0 25 -5 47 -11z m1365 -490 c178 -64 462 -153 602 -189 227 -58
223 -53 222 -350 -3 -317 -18 -384 -97 -404 -104 -27 -869 143 -1048 233 -95
47 -92 88 22 316 73 146 98 235 99 352 0 28 3 58 6 67 10 27 71 19 194 -25z
m4010 -215 c-43 -128 -168 -409 -182 -412 -44 -9 -21 101 52 255 57 119 141
254 148 235 2 -8 -6 -43 -18 -78z m-2850 -104 c64 -19 215 -40 425 -59 252
-24 258 -27 263 -117 3 -70 -68 -432 -92 -469 -24 -37 -75 -45 -296 -45 -235
0 -364 12 -391 36 -34 30 -42 106 -36 309 7 190 19 302 38 337 11 20 38 23 89
8z m2460 -14 c0 -13 -9 -53 -20 -88 -12 -34 -24 -97 -27 -139 -5 -72 -4 -77
18 -93 14 -9 43 -16 71 -16 135 0 23 -80 -202 -145 -123 -35 -174 -43 -184
-26 -13 21 130 317 207 429 55 80 80 102 114 102 18 0 23 -6 23 -24z m-423
-72 c3 -9 -22 -74 -60 -152 -74 -155 -97 -222 -100 -283 -2 -54 -28 -71 -143
-94 -107 -22 -168 -18 -172 11 -3 23 97 322 130 388 31 62 67 96 102 97 17 0
72 11 121 24 112 28 114 29 122 9z m-697 -54 c52 -7 81 -16 95 -30 l20 -20
-23 -68 c-34 -95 -125 -278 -170 -337 -21 -27 -50 -56 -64 -63 -42 -20 -124
-32 -221 -32 -107 0 -127 11 -127 71 0 98 83 433 114 458 34 29 231 39 376 21z"/>
<path d="M4383 5834 c-3 -8 -1 -26 5 -39 15 -33 -3 -82 -37 -99 -48 -25 -143
-37 -380 -46 -229 -10 -336 -21 -374 -42 -22 -11 -19 -54 3 -51 8 1 125 9 260
18 448 29 551 49 584 114 20 38 20 93 1 131 -17 33 -52 40 -62 14z"/>
<path d="M4840 5838 c-101 -9 -179 -40 -239 -94 -69 -62 -81 -103 -81 -274 0
-214 24 -264 168 -350 98 -58 125 -53 167 29 25 50 13 92 -45 156 -27 30 -56
67 -64 84 -37 70 -28 164 18 194 31 21 113 44 218 62 49 9 99 20 112 25 36 13
66 50 66 81 0 67 -137 105 -320 87z"/>
<path d="M5170 5475 c-8 -2 -37 -7 -64 -10 -72 -10 -96 -38 -96 -114 0 -136
75 -204 144 -132 40 42 96 51 302 51 195 0 257 10 281 46 14 22 14 26 -1 49
-24 37 -59 56 -149 83 -69 20 -108 25 -242 28 -88 1 -167 1 -175 -1z"/>
<path d="M2714 3236 c36 -30 266 -156 471 -259 563 -281 1381 -608 1752 -702
261 -65 548 -92 1453 -136 318 -15 885 -15 1035 0 304 31 511 101 731 247 114
75 263 238 240 261 -11 11 -69 -24 -142 -86 -231 -195 -425 -293 -697 -353
-97 -22 -122 -23 -492 -22 -356 0 -867 20 -1425 54 -451 28 -605 56 -942 174
-445 155 -906 347 -1412 588 -230 109 -528 240 -576 253 -25 6 -24 6 4 -19z"/>
<path d="M2150 3231 c0 -42 752 -440 1245 -659 463 -205 881 -340 1395 -451
983 -212 1371 -261 2320 -292 195 -6 499 -9 675 -7 370 5 410 12 569 96 132
70 368 219 426 270 61 54 77 82 81 147 4 73 0 219 -6 213 -3 -3 -12 -43 -19
-90 -8 -47 -23 -103 -34 -124 -39 -76 -136 -149 -407 -306 -267 -155 -305
-163 -760 -162 -660 3 -1273 38 -1703 100 -379 54 -1316 246 -1657 339 -372
102 -980 366 -1608 697 -254 134 -474 238 -501 238 -9 0 -16 -4 -16 -9z"/>
<path d="M5905 2460 c64 -10 833 -10 905 0 30 4 -172 7 -450 7 -278 0 -482 -3
-455 -7z"/>
</g>
</svg>
